<svg id="_图层_2" data-name="图层_2" xmlns="http://www.w3.org/2000/svg" viewBox="0 0 122.19 15.67">
  <defs>
    <style>
      .cls-1 {
        fill: #f1f1f1;
      }
    </style>
  </defs>
  <g id="_图层_1-2" data-name="图层_1">
    <path class="cls-1" d="M72.62.28l-7.34,14.98c-.04.08-.12.13-.21.13h-2.27c-.11,0-.21-.06-.26-.16L55.21.28h2.69l6.01,12.95L69.93.28h2.69Z"></path>
    <path class="cls-1" d="M89.34,15.39h-1.83c-.62,0-1.19-.36-1.46-.92l-2.51-5.27h-6.55l-2.4,5.33c-.24.52-.75.85-1.32.85h-1.73l7.15-14.78c.1-.2.3-.33.53-.33h2.01c.21,0,.4.12.49.3l7.61,14.8ZM83.55,9.21l-3.35-7.01-3.2,7.01h6.55Z"></path>
    <path class="cls-1" d="M104.42,2.08h-6.3v13.31h-2.53V2.08h-6.25V.28h13.79c.72,0,1.3.58,1.3,1.3v.5Z"></path>
    <path class="cls-1" d="M14.65,15.41h-2.53L2.92,4.15c-.19-.24-.57-.1-.57.21v11.05H0V1.15C0,.66.39.26.88.26h1.64l9.78,11.96V.26h2.35v15.16Z"></path>
    <path class="cls-1" d="M32.4,15.41h-13.05V.26h12.72c.42,0,.76.34.76.77v1.03h-11.01v4.63h8.09v1.8h-8.09v5.13h11.44v.93c0,.48-.38.87-.86.87Z"></path>
    <path class="cls-1" d="M121.34,15.41h-13.05V.26h12.72c.42,0,.76.34.76.77v1.03h-11.01v4.63h8.09v1.8h-8.09v5.13h11.44v.93c0,.48-.38.87-.86.87Z"></path>
    <path class="cls-1" d="M44.68,0c2.61,0,4.75.72,6.41,2.15,1.66,1.43,2.49,3.33,2.49,5.69s-.83,4.25-2.49,5.69c-1.66,1.43-3.8,2.15-6.41,2.15s-4.77-.72-6.44-2.16-2.51-3.33-2.51-5.68.84-4.25,2.51-5.69c1.67-1.43,3.82-2.15,6.44-2.15ZM44.66,13.96c1.87,0,3.4-.54,4.59-1.61,1.19-1.08,1.79-2.58,1.79-4.51s-.59-3.43-1.78-4.51c-1.19-1.07-2.7-1.61-4.54-1.61s-3.41.54-4.61,1.61c-1.2,1.07-1.8,2.58-1.8,4.51s.6,3.42,1.79,4.5c1.2,1.08,2.72,1.62,4.57,1.62Z"></path>
  </g>
</svg>